<?xml version="1.0" encoding="UTF-8"?>
<svg id="Layer_1" data-name="Layer 1" xmlns="http://www.w3.org/2000/svg" viewBox="0 0 7819.613 2052.502">
  <defs>
    <style>
      .cls-1 {
        fill: #39b54a;
      }

      .cls-1, .cls-2, .cls-3, .cls-4 {
        stroke-width: 0px;
      }

      .cls-5 {
        stroke-width: 100px;
      }

      .cls-5, .cls-6, .cls-7 {
        fill: none;
        stroke: #fff;
        stroke-miterlimit: 10;
      }

      .cls-2 {
        fill: #58595b;
      }

      .cls-3 {
        fill: #414042;
      }

      .cls-6 {
        stroke-width: 60px;
      }

      .cls-4 {
        fill: #fff;
      }

      .cls-7 {
        stroke-width: 30px;
      }
    </style>
  </defs>
  <g>
    <g>
      <circle class="cls-5" cx="800" cy="1252.502" r="750"/>
      <circle class="cls-2" cx="800" cy="1252.502" r="750"/>
    </g>
    <circle class="cls-4" cx="800" cy="1252.502" r="650"/>
    <g>
      <path class="cls-5" d="M1330.33,1782.832c135.723-135.723,219.67-323.223,219.67-530.33,0-414.214-335.786-750-750-750v750l530.28,530.28.05.05Z"/>
      <path class="cls-1" d="M1330.33,1782.832c135.723-135.723,219.67-323.223,219.67-530.33,0-414.214-335.786-750-750-750v750l530.28,530.28.05.05Z"/>
    </g>
    <circle class="cls-2" cx="800" cy="1252.502" r="112.5"/>
    <circle class="cls-2" cx="1175" cy="1252.502" r="112.5"/>
    <circle class="cls-2" cx="425" cy="1252.502" r="112.5"/>
    <path class="cls-2" d="M676.168,349.038c-6.133-6.125-11.869-12.625-17.182-19.473l3.909,5.06c-10.533-13.661-19.288-28.613-26.026-44.494l2.52,5.972c-6.844-16.273-11.509-33.38-13.889-50.872l.893,6.646c-2.359-17.772-2.373-35.804-.028-53.578l-.893,6.646c2.358-17.504,7.012-34.634,13.849-50.92l-2.52,5.972c6.723-15.895,15.474-30.869,26.005-44.541l-3.909,5.06c10.498-13.556,22.681-25.738,36.236-36.236l-5.06,3.909c13.672-10.531,28.646-19.282,44.541-26.005l-5.972,2.52c16.286-6.837,33.416-11.491,50.92-13.849l-6.646.893c17.702-2.335,35.666-2.335,53.369,0l-6.646-.893c17.504,2.358,34.634,7.012,50.92,13.849l-5.972-2.52c15.895,6.723,30.869,15.474,44.541,26.005l-5.06-3.909c13.556,10.498,25.738,22.681,36.236,36.236l-3.909-5.06c10.531,13.672,19.282,28.646,26.005,44.541l-2.52-5.972c6.837,16.286,11.491,33.416,13.849,50.92l-.893-6.646c2.346,17.784,2.331,35.826-.032,53.608l.893-6.646c-2.385,17.512-7.061,34.637-13.92,50.925l2.52-5.972c-6.753,15.896-15.527,30.86-26.082,44.528l3.909-5.06c-5.198,6.688-10.799,13.045-16.78,19.044-4.531,4.545-7.322,11.257-7.322,17.678,0,6.132,2.724,13.456,7.322,17.678,4.764,4.374,11.019,7.621,17.678,7.322s12.903-2.533,17.678-7.322c26.988-27.071,47.046-61.057,57.464-97.854,2.392-8.449,4.221-17.055,5.478-25.745,1.578-10.907,2.797-21.805,2.942-32.832.228-17.455-1.754-35.104-5.473-52.148-3.555-16.293-9.33-31.941-16.328-47.059-6.055-13.081-13.535-25.497-22.256-36.974-10.01-13.173-20.769-25.49-33.369-36.26-12.398-10.597-25.762-20.208-40.13-27.958-29.886-16.12-62.86-25.207-96.751-26.989-17.286-.909-34.557.596-51.598,3.539-14.513,2.507-28.743,6.631-42.346,12.277-15.42,6.401-30.172,13.744-43.879,23.336-13.335,9.331-25.953,19.82-37.044,31.751-22.572,24.281-39.554,53.083-49.921,84.567-5.305,16.111-8.307,32.833-9.943,49.697-1.831,18.868-.625,37.591,2.2,56.303,2.942,19.49,9.063,37.924,16.943,55.94,7.656,17.504,17.953,33.224,29.705,48.225,5.089,6.496,10.583,12.664,16.421,18.495,4.538,4.533,11.263,7.322,17.678,7.322,6.132,0,13.456-2.724,17.678-7.322,4.374-4.764,7.621-11.019,7.322-17.678s-2.536-12.897-7.322-17.678h0Z"/>
    <line class="cls-6" x1="800" y1="132.377" x2="981.286" y2="313.663"/>
    <line class="cls-6" x1="800" y1="132.377" x2="618.315" y2="314.062"/>
    <g>
      <rect class="cls-7" x="662.101" y="316.716" width="275" height="100" rx="12" ry="12"/>
      <rect class="cls-2" x="662.101" y="316.716" width="275" height="100" rx="12" ry="12"/>
    </g>
    <rect class="cls-2" x="750" y="343.104" width="100" height="123.611" rx="12" ry="12"/>
  </g>
  <g>
    <path class="cls-3" d="M2195.274,1456.958v27.216h-322.705v-27.216l11.664-9.072c25.92-19.44,42.768-51.84,42.768-82.944v-701.139c0-31.104-16.848-64.8-42.768-82.944l-11.664-10.368v-25.92h322.705v25.92l-12.96,10.368c-23.328,18.144-41.472,51.84-41.472,82.944v309.745h321.409v-309.745c0-31.104-15.552-64.8-41.472-82.944l-11.664-10.368v-25.92h321.409v25.92l-10.368,10.368c-25.92,18.144-42.768,51.84-42.768,82.944v701.139c0,31.104,16.848,63.504,42.768,82.944l10.368,9.072v27.216h-321.409v-27.216l11.664-9.072c25.92-19.44,41.472-51.84,41.472-82.944v-311.042h-321.409v311.042c0,31.104,18.144,63.504,41.472,82.944l12.96,9.072Z"/>
    <path class="cls-3" d="M3414.807,1021.5c0,146.448-125.712,256.609-296.785,256.609-34.992,0-71.281-5.185-108.865-14.257,32.4,63.505,89.424,99.793,163.297,99.793,124.417,0,200.881-102.385,213.841-147.745h27.216c-41.472,168.481-151.632,281.233-324.001,281.233-189.217,0-327.89-133.488-327.89-338.257,0-215.138,151.633-360.291,377.138-360.291,191.809,0,276.049,104.977,276.049,222.914ZM3132.278,880.235c-77.76,0-155.521,98.497-155.521,242.354,0,36.288,5.184,69.983,12.96,99.792,272.161-77.761,266.977-342.146,142.561-342.146Z"/>
    <path class="cls-3" d="M4058.908,1051.308v324.002c0,33.696,10.368,46.656,36.288,46.656,0,0,19.44,0,29.808-18.145,0,32.4-46.656,93.312-143.857,93.312-69.984,0-119.232-32.4-133.488-98.496-42.768,64.8-112.752,98.496-190.513,98.496-119.232,0-211.249-77.76-211.249-194.4,0-238.466,379.729-212.545,388.802-320.114-25.92-85.536-94.608-114.048-139.969-114.048-18.144,0-31.104,3.888-37.584,9.072,22.032,18.144,37.584,46.656,37.584,79.056,0,54.432-45.36,99.793-102.384,99.793s-102.384-45.361-102.384-104.977c0-89.424,97.2-152.929,260.497-152.929,145.152,0,308.449,50.544,308.449,252.721ZM3843.771,1078.525c-64.8,46.656-182.737,68.688-182.737,180.145,0,64.8,40.176,104.977,81.648,104.977,46.656,0,93.312-50.544,101.088-127.009v-158.112Z"/>
    <path class="cls-3" d="M4564.347,610.666v-25.92l213.841-40.176h54.433v830.74c0,33.696,10.368,46.656,36.288,46.656,0,0,19.44,0,31.104-18.145,0,32.4-47.952,93.312-145.152,93.312-64.8,0-110.161-25.92-129.601-84.24-40.176,53.136-98.497,84.24-185.329,84.24-181.441,0-305.857-138.673-305.857-346.033,0-211.25,129.601-352.514,318.817-352.514,75.168,0,127.008,23.328,164.592,60.912v-155.521c0-31.104-15.552-64.8-41.472-82.944l-11.664-10.368ZM4617.483,1184.797v-72.576c-7.776-142.562-62.208-231.986-138.672-231.986-82.944,0-129.601,107.568-129.601,264.385,0,167.185,53.136,272.161,132.192,272.161,75.168,0,128.305-90.72,136.081-231.984Z"/>
    <path class="cls-1" d="M5178.633,1726.527l-6.479,25.921h-322.705l6.48-25.921,14.256-10.367c29.808-18.145,54.432-51.841,60.912-82.944l152.929-660.963c7.775-31.104-1.297-64.8-23.328-82.944l-9.072-9.072,5.184-27.216,225.504-40.176h53.137l-11.664,47.952c46.655-37.584,104.976-60.913,180.145-60.913,189.217,0,285.121,141.265,235.873,352.514-47.952,207.36-204.77,346.033-386.21,346.033-79.057,0-130.896-25.92-160.705-72.576l-47.952,207.361c-6.479,31.104,3.889,64.8,23.328,82.944l10.368,10.367ZM5527.259,1145.916c36.288-155.521,12.96-264.385-69.984-264.385-77.761,0-152.929,93.312-193.104,238.465l-14.257,58.32c-25.92,145.152,5.185,239.761,81.648,239.761,79.057,0,156.816-103.68,195.697-272.161Z"/>
    <path class="cls-1" d="M6407.241,1051.308l-75.168,324.002c-7.776,33.696,0,46.656,25.92,46.656,0,0,19.44,0,33.696-18.145-6.48,32.4-67.393,93.312-164.593,93.312-69.984,0-112.752-32.4-111.456-98.496-57.024,64.8-134.785,98.496-212.545,98.496-119.232,0-193.105-77.76-167.185-194.4,55.728-238.466,428.978-212.545,462.674-320.114-5.185-85.536-67.393-114.048-112.753-114.048-18.144,0-32.4,3.888-40.176,9.072,18.144,18.144,27.216,46.656,19.439,79.056-12.96,54.432-68.688,99.793-125.712,99.793s-92.017-45.361-77.761-104.977c20.736-89.424,132.192-152.929,295.489-152.929,145.152,0,296.785,50.544,250.129,252.721ZM6185.625,1078.525c-75.169,46.656-198.289,68.688-224.209,180.145-14.257,64.8,15.552,104.977,57.023,104.977,46.656,0,104.977-50.544,130.897-127.009l36.288-158.112Z"/>
    <path class="cls-1" d="M7123.918,976.14c-16.849,68.689-80.353,119.233-145.152,119.233-66.097,0-106.272-50.544-90.721-115.345,9.072-37.584,32.4-69.984,63.504-90.72-6.479-2.592-22.031-9.072-46.656-9.072-92.016,0-193.104,98.497-226.801,242.354-32.4,142.561,20.736,241.057,139.969,241.057,124.417,0,225.505-102.385,248.833-147.745h27.216c-68.688,142.561-185.328,281.233-374.545,281.233-176.257,0-313.634-123.12-264.386-338.257,46.656-202.178,228.098-360.291,444.53-360.291,151.633,0,246.241,79.057,224.209,177.553Z"/>
    <path class="cls-1" d="M7813.386,1021.5c-33.696,146.448-184.032,256.609-355.105,256.609-34.992,0-69.984-5.185-106.272-14.257,18.145,63.505,66.097,99.793,139.969,99.793,124.417,0,225.505-102.385,248.833-147.745h27.216c-80.352,168.481-216.433,281.233-388.801,281.233-189.217,0-298.082-133.488-250.129-338.257,49.248-215.138,234.576-360.291,460.081-360.291,191.81,0,251.426,104.977,224.209,222.914ZM7564.553,880.235c-77.76,0-178.849,98.497-212.545,242.354-7.775,36.288-10.367,69.983-9.071,99.792,289.009-77.761,346.033-342.146,221.616-342.146Z"/>
  </g>
</svg>